<?xml version="1.0" encoding="UTF-8" standalone="no"?>
<svg width="605px" height="32px" viewBox="0 0 605 32" version="1.1" xmlns="http://www.w3.org/2000/svg" xmlns:xlink="http://www.w3.org/1999/xlink" xmlns:sketch="http://www.bohemiancoding.com/sketch/ns">
    <!-- Generator: Sketch 3.2.2 (9983) - http://www.bohemiancoding.com/sketch -->
    <title>ETH DEV BOUNTY HUNTERS </title>
    <desc>Created with Sketch.</desc>
    <defs></defs>
    <g id="Whisper" stroke="none" stroke-width="1" fill="none" fill-rule="evenodd" sketch:type="MSPage">
        <g id="Artboard-4" sketch:type="MSArtboardGroup" transform="translate(-197.000000, -218.000000)" fill="#FFFFFF">
            <g id="ETH_DEV_LOGO_SMALL" sketch:type="MSLayerGroup" transform="translate(197.000000, 219.000000)">
                <rect id="Rectangle-path" sketch:type="MSShapeGroup" x="144.558" y="28.442" width="23.864" height="1.058"></rect>
                <rect id="Rectangle-path" sketch:type="MSShapeGroup" x="146.672" y="15" width="19.636" height="1.058"></rect>
                <rect id="Rectangle-path" sketch:type="MSShapeGroup" x="144.558" y="0.5" width="23.864" height="1.057"></rect>
                <path d="M174.69,0.5 L187,29.5 L185.875,29.5 L173.564,0.5 L174.69,0.5 Z" id="Shape" sketch:type="MSShapeGroup"></path>
                <path d="M199.429,0.5 L198.304,0.5 L194.786,8.786 L195.911,8.786 L199.429,0.5 Z" id="Shape" sketch:type="MSShapeGroup"></path>
                <path d="M122.808,29.5 L115.558,29.5 L115.558,22.25 L116.614,22.25 L116.614,28.442 L122.808,28.442 L122.808,29.5 Z" id="Shape" sketch:type="MSShapeGroup"></path>
                <path d="M123.821,0.5 L115.535,0.5 L115.535,15 L108.285,15 L108.285,16.035 L116.571,16.035 L116.571,1.535 L123.821,1.535 C131.829,1.535 138.321,8.027 138.321,16.035 L139.356,16.035 C139.356,7.456 132.401,0.5 123.821,0.5" id="Shape" sketch:type="MSShapeGroup"></path>
                <path d="M98.846,0.5 L86.536,29.5 L87.661,29.5 L99.971,0.5 L98.846,0.5 Z" id="Shape" sketch:type="MSShapeGroup"></path>
                <path d="M71.032,29.5 L69.964,29.5 L69.964,16.035 L51.322,16.035 L51.322,29.5 L50.286,29.5 L50.286,0.5 L51.322,0.5 L51.322,15 L69.964,15 L69.964,0.5 L71.032,0.5 L71.032,29.5 Z" id="Shape" sketch:type="MSShapeGroup"></path>
                <path d="M45.107,1.536 L34.75,1.536 L34.75,29.5 L33.714,29.5 L33.714,1.536 L23.357,1.536 L23.357,0.5 L45.107,0.5 L45.107,1.536 Z" id="Shape" sketch:type="MSShapeGroup"></path>
                <path d="M16.068,16.035 L1.639,16.035 L1.639,28.465 L18.179,28.465 L18.179,29.5 L0.571,29.5 L0.571,0.5 L18.179,0.5 L18.179,1.536 L1.639,1.536 L1.639,15 L16.068,15 L16.068,16.035 Z" id="Shape" sketch:type="MSShapeGroup"></path>
            </g>
            <rect id="Rectangle-69" sketch:type="MSShapeGroup" x="412" y="227" width="5" height="5"></rect>
            <rect id="Rectangle-69" sketch:type="MSShapeGroup" x="412" y="244" width="5" height="5"></rect>
            <path d="M438.814,232.956 L438.814,219.852 L450.868,219.852 C451.932005,219.852 452.925995,219.984999 453.85,220.251 C454.774005,220.517001 455.578997,220.922997 456.265,221.469 C456.951003,222.015003 457.489998,222.700996 457.882,223.527 C458.274002,224.353004 458.47,225.339994 458.47,226.488 C458.47,227.552005 458.260002,228.489996 457.84,229.302 C457.419998,230.114004 456.860004,230.792997 456.16,231.339 C455.459996,231.885003 454.655005,232.290999 453.745,232.557 C452.834995,232.823001 451.876005,232.956 450.868,232.956 L438.814,232.956 Z M437.974,219.012 L437.974,249 L450.364,249 C451.792007,249 453.114994,248.825002 454.333,248.475 C455.551006,248.124998 456.593996,247.614003 457.462,246.942 C458.330004,246.269997 459.008998,245.423005 459.499,244.401 C459.989002,243.378995 460.234,242.196007 460.234,240.852 C460.234,239.703994 460.038002,238.675005 459.646,237.765 C459.253998,236.854995 458.729003,236.085003 458.071,235.455 C457.412997,234.824997 456.643004,234.335002 455.761,233.985 C454.878996,233.634998 453.948005,233.446 452.968,233.418 L452.968,233.334 C453.892005,233.278 454.738996,233.061002 455.509,232.683 C456.279004,232.304998 456.943997,231.808003 457.504,231.192 C458.064003,230.575997 458.504998,229.862004 458.827,229.05 C459.149002,228.237996 459.31,227.384004 459.31,226.488 C459.31,225.227994 459.093002,224.136005 458.659,223.212 C458.224998,222.287995 457.623004,221.511003 456.853,220.881 C456.082996,220.250997 455.187005,219.782002 454.165,219.474 C453.142995,219.165998 452.044006,219.012 450.868,219.012 L437.974,219.012 Z M438.814,248.16 L438.814,233.796 L450.868,233.796 C451.932005,233.796 452.974995,233.921999 453.997,234.174 C455.019005,234.426001 455.928996,234.831997 456.727,235.392 C457.525004,235.952003 458.168998,236.679996 458.659,237.576 C459.149002,238.472004 459.394,239.577993 459.394,240.894 C459.394,242.126006 459.170002,243.196995 458.722,244.107 C458.273998,245.017005 457.665004,245.772997 456.895,246.375 C456.124996,246.977003 455.215005,247.424999 454.165,247.719 C453.114995,248.013001 451.974006,248.16 450.742,248.16 L438.814,248.16 Z M465.206,234.006 C465.206,231.877989 465.506997,229.86201 466.109,227.958 C466.711003,226.05399 467.592994,224.388007 468.755,222.96 C469.917006,221.531993 471.358991,220.398004 473.081,219.558 C474.803009,218.717996 476.783989,218.298 479.024,218.298 C481.264011,218.298 483.244991,218.717996 484.967,219.558 C486.689009,220.398004 488.130994,221.531993 489.293,222.96 C490.455006,224.388007 491.336997,226.05399 491.939,227.958 C492.541003,229.86201 492.842,231.877989 492.842,234.006 C492.842,236.134011 492.541003,238.14999 491.939,240.054 C491.336997,241.95801 490.455006,243.623993 489.293,245.052 C488.130994,246.480007 486.689009,247.606996 484.967,248.433 C483.244991,249.259004 481.264011,249.672 479.024,249.672 C476.783989,249.672 474.803009,249.259004 473.081,248.433 C471.358991,247.606996 469.917006,246.480007 468.755,245.052 C467.592994,243.623993 466.711003,241.95801 466.109,240.054 C465.506997,238.14999 465.206,236.134011 465.206,234.006 L465.206,234.006 Z M466.046,234.006 C466.074,236.162011 466.388997,238.149991 466.991,239.97 C467.593003,241.790009 468.446995,243.357993 469.553,244.674 C470.659006,245.990007 472.009992,247.018996 473.606,247.761 C475.202008,248.503004 477.00799,248.874 479.024,248.874 C481.04001,248.874 482.845992,248.503004 484.442,247.761 C486.038008,247.018996 487.388995,245.990007 488.495,244.674 C489.601006,243.357993 490.454997,241.790009 491.057,239.97 C491.659003,238.149991 491.974,236.162011 492.002,234.006 C491.974,231.849989 491.659003,229.862009 491.057,228.042 C490.454997,226.221991 489.601006,224.654007 488.495,223.338 C487.388995,222.021993 486.038008,220.993004 484.442,220.251 C482.845992,219.508996 481.04001,219.138 479.024,219.138 C477.00799,219.138 475.202008,219.508996 473.606,220.251 C472.009992,220.993004 470.659006,222.021993 469.553,223.338 C468.446995,224.654007 467.593003,226.221991 466.991,228.042 C466.388997,229.862009 466.074,231.849989 466.046,234.006 L466.046,234.006 Z M519.78,219.012 L519.78,237.828 C519.78,241.440018 518.954008,244.183991 517.302,246.06 C515.649992,247.936009 513.088017,248.874 509.616,248.874 C506.143983,248.874 503.582008,247.936009 501.93,246.06 C500.277992,244.183991 499.452,241.440018 499.452,237.828 L499.452,219.012 L498.612,219.012 L498.612,237.828 C498.612,241.86002 499.549991,244.84199 501.426,246.774 C503.302009,248.70601 506.031982,249.672 509.616,249.672 C513.200018,249.672 515.929991,248.70601 517.806,246.774 C519.682009,244.84199 520.62,241.86002 520.62,237.828 L520.62,219.012 L519.78,219.012 Z M527.356,219.012 L527.356,249 L528.196,249 L528.196,220.062 L528.28,220.062 L548.776,249 L550.036,249 L550.036,219.012 L549.196,219.012 L549.196,247.95 L549.112,247.95 L528.616,219.012 L527.356,219.012 Z M553.832,219.852 L564.584,219.852 L564.584,249 L565.424,249 L565.424,219.852 L576.218,219.852 L576.218,219.012 L553.832,219.012 L553.832,219.852 Z M600.552,219.012 L589.002,235.476 L577.536,219.012 L576.486,219.012 L588.582,236.358 L588.582,249 L589.422,249 L589.422,236.358 L601.56,219.012 L600.552,219.012 Z" id="BOUNTY" sketch:type="MSShapeGroup"></path>
            <path d="M620.108,233.796 L641.108,233.796 L641.108,249 L641.948,249 L641.948,219.012 L641.108,219.012 L641.108,232.956 L620.108,232.956 L620.108,219.012 L619.268,219.012 L619.268,249 L620.108,249 L620.108,233.796 Z M669.452,219.012 L669.452,237.828 C669.452,241.440018 668.626008,244.183991 666.974,246.06 C665.321992,247.936009 662.760017,248.874 659.288,248.874 C655.815983,248.874 653.254008,247.936009 651.602,246.06 C649.949992,244.183991 649.124,241.440018 649.124,237.828 L649.124,219.012 L648.284,219.012 L648.284,237.828 C648.284,241.86002 649.221991,244.84199 651.098,246.774 C652.974009,248.70601 655.703982,249.672 659.288,249.672 C662.872018,249.672 665.601991,248.70601 667.478,246.774 C669.354009,244.84199 670.292,241.86002 670.292,237.828 L670.292,219.012 L669.452,219.012 Z M676.628,219.012 L676.628,249 L677.468,249 L677.468,220.062 L677.552,220.062 L698.048,249 L699.308,249 L699.308,219.012 L698.468,219.012 L698.468,247.95 L698.384,247.95 L677.888,219.012 L676.628,219.012 Z M702.704,219.852 L713.456,219.852 L713.456,249 L714.296,249 L714.296,219.852 L725.09,219.852 L725.09,219.012 L702.704,219.012 L702.704,219.852 Z M729.284,248.16 L729.284,233.796 L747.218,233.796 L747.218,232.956 L729.284,232.956 L729.284,219.852 L748.352,219.852 L748.352,219.012 L728.444,219.012 L728.444,249 L748.52,249 L748.52,248.16 L729.284,248.16 Z M753.638,249 L753.638,234.93 L764.936,234.93 C766.672008,234.93 768.057995,235.104998 769.094,235.455 C770.130005,235.805002 770.927997,236.308997 771.488,236.967 C772.048003,237.625003 772.418999,238.436995 772.601,239.403 C772.783001,240.369005 772.874,241.467994 772.874,242.7 C772.874,243.176002 772.881,243.714997 772.895,244.317 C772.909,244.919003 772.937,245.513997 772.979,246.102 C773.021,246.690003 773.083999,247.242997 773.168,247.761 C773.252,248.279003 773.363999,248.691998 773.504,249 L774.428,249 C774.287999,248.803999 774.176,248.454003 774.092,247.95 C774.007999,247.445997 773.938,246.886003 773.882,246.27 C773.825999,245.653997 773.784,245.031003 773.756,244.401 C773.728,243.770997 773.714,243.246002 773.714,242.826 C773.714,241.621994 773.644,240.544005 773.504,239.592 C773.363999,238.639995 773.084002,237.814004 772.664,237.114 C772.243998,236.413996 771.642004,235.847002 770.858,235.413 C770.073996,234.978998 769.052006,234.678001 767.792,234.51 L767.792,234.426 C769.89201,233.949998 771.501994,233.047007 772.622,231.717 C773.742005,230.386993 774.274,228.71401 774.218,226.698 C774.161999,224.065987 773.406007,222.127006 771.95,220.881 C770.493992,219.634994 768.198015,219.012 765.062,219.012 L752.798,219.012 L752.798,249 L753.638,249 Z M753.638,234.09 L753.638,219.852 L765.272,219.852 C768.128014,219.852 770.185993,220.446994 771.446,221.637 C772.706006,222.827006 773.35,224.485989 773.378,226.614 C773.378,227.930007 773.140002,229.056995 772.664,229.995 C772.187997,230.933005 771.558004,231.709997 770.774,232.326 C769.989996,232.942003 769.087005,233.389999 768.065,233.67 C767.042995,233.950001 765.972005,234.09 764.852,234.09 L753.638,234.09 Z M800.294,227.412 L801.134,227.412 C801.049999,225.731992 800.728003,224.311006 800.168,223.149 C799.607997,221.986994 798.859004,221.049004 797.921,220.335 C796.982995,219.620996 795.891006,219.103002 794.645,218.781 C793.398993,218.458998 792.034007,218.298 790.55,218.298 C789.345994,218.298 788.135006,218.423999 786.917,218.676 C785.698994,218.928001 784.600005,219.347997 783.62,219.936 C782.639995,220.524003 781.842003,221.314995 781.226,222.309 C780.609997,223.303005 780.302,224.541993 780.302,226.026 C780.302,227.482007 780.595997,228.664995 781.184,229.575 C781.772003,230.485005 782.548995,231.212997 783.515,231.759 C784.481005,232.305003 785.565994,232.731998 786.77,233.04 C787.974006,233.348002 789.177994,233.641999 790.382,233.922 C791.530005,234.202001 792.726993,234.474999 793.973,234.741 C795.219006,235.007001 796.352995,235.398997 797.375,235.917 C798.397005,236.435003 799.236996,237.134996 799.895,238.017 C800.553003,238.899004 800.882,240.095992 800.882,241.608 C800.882,242.896006 800.595003,244.001995 800.021,244.926 C799.446997,245.850005 798.698004,246.605997 797.774,247.194 C796.849995,247.782003 795.807006,248.208999 794.645,248.475 C793.482994,248.741001 792.314006,248.874 791.138,248.874 C789.541992,248.874 788.079006,248.699002 786.749,248.349 C785.418993,247.998998 784.271005,247.432004 783.305,246.648 C782.338995,245.863996 781.590002,244.849006 781.058,243.603 C780.525997,242.356994 780.26,240.838009 780.26,239.046 L779.42,239.046 C779.392,240.95001 779.664997,242.573993 780.239,243.918 C780.813003,245.262007 781.624994,246.360996 782.675,247.215 C783.725005,248.069004 784.970993,248.691998 786.413,249.084 C787.855007,249.476002 789.429991,249.672 791.138,249.672 C792.426006,249.672 793.699993,249.525001 794.96,249.231 C796.220006,248.936999 797.353995,248.461003 798.362,247.803 C799.370005,247.144997 800.181997,246.312005 800.798,245.304 C801.414003,244.295995 801.722,243.078007 801.722,241.65 C801.722,240.081992 801.449002,238.836005 800.903,237.912 C800.356997,236.987995 799.622004,236.246003 798.698,235.686 C797.773995,235.125997 796.689006,234.678002 795.443,234.342 C794.196993,234.005998 792.874007,233.656002 791.474,233.292 C790.185993,232.983998 788.926006,232.690001 787.694,232.41 C786.461994,232.129999 785.363005,231.738003 784.397,231.234 C783.430995,230.729997 782.647003,230.072004 782.045,229.26 C781.442997,228.447996 781.142,227.370007 781.142,226.026 C781.142,224.681993 781.435997,223.569004 782.024,222.687 C782.612003,221.804996 783.360995,221.098003 784.271,220.566 C785.181004,220.033997 786.195994,219.663001 787.316,219.453 C788.436005,219.242999 789.513995,219.138 790.55,219.138 C791.894006,219.138 793.153994,219.277999 794.33,219.558 C795.506006,219.838001 796.520995,220.306997 797.375,220.965 C798.229004,221.623003 798.914997,222.476995 799.433,223.527 C799.951002,224.577005 800.237999,225.871992 800.294,227.412 L800.294,227.412 Z" id="HUNTERS" sketch:type="MSShapeGroup"></path>
        </g>
    </g>
</svg>